<svg width="22" height="21" viewBox="0 0 22 21" fill="none" xmlns="http://www.w3.org/2000/svg">
<path d="M9.80264 6.57811C9.21749 6.37122 8.7109 5.98794 8.3527 5.48109C7.9945 4.97424 7.80232 4.36876 7.80264 3.74811C7.80264 2.95246 8.11871 2.1894 8.68132 1.62679C9.24393 1.06418 10.007 0.748108 10.8026 0.748108C11.5983 0.748108 12.3614 1.06418 12.924 1.62679C13.4866 2.1894 13.8026 2.95246 13.8026 3.74811C13.8026 5.05811 12.9626 6.16811 11.8026 6.57811V9.38811C11.1489 9.20243 10.4564 9.20243 9.80264 9.38811V6.57811ZM17.1026 19.8481C16.5635 19.541 16.1332 19.0737 15.8716 18.5111C15.61 17.9484 15.53 17.3183 15.6426 16.7081L13.2026 15.2981C13.6826 14.8381 14.0426 14.2481 14.2026 13.5681L16.6426 14.9781C17.5826 14.1681 18.9626 14.0081 20.0926 14.6581C21.5326 15.4881 22.0226 17.3181 21.1926 18.7481C20.9971 19.0897 20.7359 19.3892 20.4242 19.6295C20.1125 19.8698 19.7564 20.0461 19.3763 20.1483C18.9962 20.2505 18.5997 20.2766 18.2095 20.2251C17.8193 20.1736 17.4432 20.0455 17.1026 19.8481ZM1.50264 14.6481C2.63264 13.9981 4.01264 14.1681 4.95264 14.9681L7.40264 13.5581C7.56264 14.2481 7.91264 14.8281 8.40264 15.2881L5.95264 16.6981C6.18264 17.9181 5.63264 19.1981 4.50264 19.8481C3.06264 20.6781 1.23264 20.1881 0.402644 18.7481C0.205308 18.4068 0.0772185 18.0299 0.0257056 17.6389C-0.0258072 17.248 0.000267409 16.8508 0.102437 16.47C0.204607 16.0892 0.380867 15.7323 0.621131 15.4196C0.861395 15.107 1.16095 14.8448 1.50264 14.6481ZM12.8026 12.7481C12.8026 13.2785 12.5919 13.7872 12.2169 14.1623C11.8418 14.5374 11.3331 14.7481 10.8026 14.7481C10.2722 14.7481 9.7635 14.5374 9.38843 14.1623C9.01336 13.7872 8.80264 13.2785 8.80264 12.7481C8.80264 12.2177 9.01336 11.709 9.38843 11.3339C9.7635 10.9588 10.2722 10.7481 10.8026 10.7481C11.3331 10.7481 11.8418 10.9588 12.2169 11.3339C12.5919 11.709 12.8026 12.2177 12.8026 12.7481ZM15.8026 12.7481L15.7726 13.3181L14.3026 12.4581C14.2026 11.3881 13.6326 10.4581 12.8026 9.86811V8.15811C14.5726 8.93811 15.8026 10.6981 15.8026 12.7481ZM13.7726 16.7781C12.9426 17.3881 11.9126 17.7481 10.8026 17.7481C9.69264 17.7481 8.66264 17.3881 7.83264 16.7481L9.30264 15.9181C9.76264 16.1281 10.2726 16.2481 10.8026 16.2481C11.3326 16.2481 11.8326 16.1281 12.3026 15.9181L13.7726 16.7781ZM5.83264 13.3081L5.80264 12.7481C5.80264 10.6981 7.03264 8.93811 8.80264 8.16811V9.87811C7.97264 10.4581 7.40264 11.3881 7.30264 12.4481L5.83264 13.3081Z" fill="black"/>
</svg>
